<?xml version="1.0" encoding="utf-8"?>
<!-- Generator: Adobe Illustrator 26.1.0, SVG Export Plug-In . SVG Version: 6.00 Build 0)  -->
<svg version="1.1" id="Layer_1" xmlns="http://www.w3.org/2000/svg" xmlns:xlink="http://www.w3.org/1999/xlink" x="0px" y="0px"
	 viewBox="0 0 1125.3 453" style="enable-background:new 0 0 1125.3 453;" xml:space="preserve">
<style type="text/css">
	.st0{fill:#FFFFFF;}
	.st1{fill:#0093E7;}
	.st2{fill:#9CCC65;}
	.st3{fill:#0F1342;}
</style>
<g>
	<g>
		<path class="st3" d="M62,434.1c-36.4,0-47.1-11.2-47.1-42.4v-81.1h27.4v80.1c0,14.3,4.7,19.9,22.1,19.9h73.4v23.5H62z"/>
		<path class="st3" d="M161.3,330.3c-6.7,0-9.2-2.5-9.2-8.3v-10.5c0-5.8,2.5-8.1,9.2-8.1h8.9c6.9,0,9.4,2.4,9.4,8.1V322
			c0,5.8-2.5,8.3-9.4,8.3H161.3z M152,434.1v-95.6h27.5v95.6H152z"/>
		<path class="st3" d="M300.5,434.1v-54.7c0-16.3-4.5-20.3-21.9-20.3h-29.3c-17,0-21.9,4-21.9,20.3v54.7h-27v-55.6
			c0-31.3,10.7-42.6,47.1-42.6h32.8c36.6,0,47.3,11.2,47.3,42.6v55.6H300.5z"/>
		<path class="st3" d="M394.7,434.1c-36.8,0-47.5-11.2-47.5-42.4v-13.2c0-31.3,10.7-42.6,47.5-42.6h54.5v-31.7h27v87.5
			c0,31.2-10.7,42.4-47.3,42.4H394.7z M374.2,391c0,17.2,4.7,20.3,23.9,20.3h30.1c17,0,21-3.8,21-20.1v-32.1H398
			c-19,0-23.7,2.7-23.7,20.3V391z"/>
		<path class="st3" d="M596.6,434.1v-54.7c0-16.3-4.5-20.3-21.9-20.3h-29.3c-17,0-21.9,4-21.9,20.3v54.7h-27v-55.6
			c0-31.3,10.7-42.6,47.1-42.6h32.8c36.6,0,47.3,11.2,47.3,42.6v55.6H596.6z"/>
		<path class="st3" d="M670.5,395v4.5c0,12,3.6,14.1,16.3,14.1h84.6v20.5h-84.6c-31.2,0-43.3-11.2-43.3-37.3v-22.6
			c0-28.6,10-38.2,44.6-38.2h47.5c28.1,0,35.9,11.2,35.9,26.8V395H670.5z M744.4,364.9c0-6.5-2.9-8.2-11-8.2h-44.9
			c-13.6,0-17.9,1.4-17.9,15.6v5.3h73.9V364.9z"/>
		<path class="st3" d="M790,434.1v-56.9c0-29.3,12.9-41.3,46-41.3h17.6v21.9h-16.8c-15,0-19.7,4-19.7,19.6v56.7H790z"/>
		<path class="st3" d="M941.8,434.1V310.6h27.5v123.5H941.8z"/>
		<path class="st3" d="M1035.6,434.1v-99.8h-51.8v-23.7h131.3v23.7h-51.8v99.8H1035.6z"/>
	</g>
	<path class="st1" d="M469.4,15.8v163c0,34.6,28.1,62.7,62.7,62.7v-163C532.1,43.9,504,15.8,469.4,15.8z"/>
	<path class="st2" d="M597.9,241.5h-65.8c0,34.6,28.1,62.7,62.7,62.7h65.8C660.6,269.6,632.6,241.5,597.9,241.5z"/>
</g>
</svg>
