<svg id="Logo" xmlns="http://www.w3.org/2000/svg" viewBox="0 0 835.12 857.34">
  <defs>
    <style>
      .cls-1 {
        fill: #29abe2;
      }

      .cls-2 {
        fill: #3498db;
      }
    </style>
  </defs>
  <title>Robin Logo</title>
  <g id="Letter_R" data-name="Letter R">
    <g>
      <path class="cls-1" d="M110.53,923.08C104,841.44,239,418.05,125,109c78,66,248.47-11.66,343.12-11.66,274.76,0,433.83,93.3,433.83,292.73,0,113.13-44.7,180.77-135.41,222.76,90.71,105,167.45,234,167,228.59S675.91,963.81,643,939.4,540.42,789,441.82,663c0,0-4.07-19-3.94,0S448,923.49,430,917.24,110.53,933.57,110.53,923.08ZM451,444.91c10.52,2.33,28.92,3.5,40.75,3.5,53.9,0,81.51-14,81.51-50.15C579,387,559,335,491.77,346.94c-13.15,0-8.48,1.61-38.12,2.33S451,444.91,451,444.91Z" transform="translate(-104.29 -91.21)"/>
      <g>
        <path class="cls-2" d="M116.53,923.08c-.85-11,.44-22.25,1.75-33.18,1.93-16.08,4.82-33.27,7.66-49.86,8.13-47.38,17-94.63,24.49-142.11,9.42-59.32,17.18-118.95,21.82-178.85,5-65.25,6.47-130.9,1.84-196.22s-15.24-130.61-35.54-193q-3.67-11.29-7.78-22.43l-10,5.84c30.13,25.18,70.64,29.8,108.56,28,44.93-2.16,89.15-12.36,133-21.76,20.87-4.48,41.76-9,62.86-12.25a348.32,348.32,0,0,1,59-3.76c47.4.64,94.92,4.06,141.61,12.47,71.48,12.88,145.17,37.65,198.37,89.2a226.29,226.29,0,0,1,52.56,77.67c13,32.22,18.67,66.82,19.22,101.44.67,42.66-4.89,86.8-24.17,125.36C854,545,825.61,572.76,791.79,592.84a317.61,317.61,0,0,1-28.29,14.83c-3.75,1.75-3.51,6.77-1.21,9.42,55.76,64.63,104.36,135,151.23,206.18,4.36,6.63,8.56,13.43,13.3,19.79,2.18,2.92,4.79,5.77,8.94,4,6.24-2.64,3.87-11.62-2.5-11.81-3.61-.1-7.54,2-10.78,3.27-7.43,3-14.78,6.2-22.13,9.4-49.27,21.47-98.31,43.52-148.64,62.44-23.5,8.83-47.38,17.43-71.91,22.91-8.77,2-15.34,3.34-24.18,3.2-.75,0-1.51,0-2.26-.09a14.12,14.12,0,0,0-1.71-.14c.94.13-1.14-.21-1.48-.29-.69-.17-1.36-.37-2-.56-1.5-.43-.08,0-.37-.13-.44-.25-.9-.45-1.31-.74a40.79,40.79,0,0,1-3.55-2.95c-8.42-7.62-15.53-16.77-22.36-25.8-10.4-13.76-20.18-28-29.9-42.22C564.41,825.08,538.77,786.16,512,748q-23.49-33.46-48.1-66.11-5.82-7.68-11.73-15.31c-1.2-1.56-2.35-3.23-3.65-4.7-1.68-1.9-1.47-1.9-.92-.55A17.9,17.9,0,0,1,447,659c-1.31-5.18-6-15.22-12.62-8.65-4.54,4.5-2.51,15.76-2.33,22q.37,12.91.76,25.82c1.56,54.56,3.12,109.3,1.07,163.87-.4,10.74-.94,21.5-2.11,32.19a98.86,98.86,0,0,1-1.5,10.24c-.3,1.5-.62,3-1,4.47-.16.57-.35,1.12-.51,1.69-.07.26-.18.5-.27.76-.45,1.31.53-1.18.11-.21-.17.39-.39.75-.58,1.13-.61,1.21.33-.26.2-.19-1.26.71,1.29-.51.37-.24.8-.23,1.82-.18,2.64-.48s.07-.1-.85-.3a37.61,37.61,0,0,0-3.82-.52,167.32,167.32,0,0,0-17.74-.5c-50.83.23-101.7,3.64-152.46,5.94-27.35,1.24-54.7,2.46-82.06,3.24-18,.52-36.32,1.39-54.33.05-1.2-.09-2.38-.21-3.58-.33s1.57.34-.22,0c-.39-.08-.78-.16-1.17-.22a15.05,15.05,0,0,0-1.76-.5c1.48,0,3.15,2.32,3.31,4.8-.49-7.67-12.49-7.72-12,0,.4,6.32,6.65,7.34,11.69,7.94a176.59,176.59,0,0,0,19.19.87c22.48.2,45-.68,67.44-1.53,55.6-2.12,111.16-5.26,166.76-7.25,17.57-.63,35.33-1.61,52.91-.75,1.07.05,2.14.13,3.21.21.44,0,.88.09,1.33.13,1.43.13-1.67-.38-.06,0,2.31.56,4.44,1,6.73,0,5.18-2.17,6.82-8.69,7.89-13.65,4.36-20.17,4.3-41.64,4.76-62.16.64-28.49.41-57-.05-85.48-.4-24.55-1-49.09-1.76-73.63-.21-7-.44-14-.61-21-.07-3,.7-7,.14-9.72-.66-3.26-9.77-1.85-9.67,1.42,0-1.2.07.28.19.66.33,1,.6,2.06.87,3.09.85,3.35,2.34,5.32,4.55,8.16,32.67,41.94,63.26,85.44,93.12,129.41,22.87,33.67,45,67.9,68.82,100.91,8,11,16.13,22.11,25.32,32.19,5.16,5.66,11,12.26,18.65,14.41,6.86,1.93,14.37,1.29,21.33.39a218.5,218.5,0,0,0,30-6.42c53.67-14.85,105.33-37.72,156.31-59.84,20.56-8.92,41-18.09,61.61-26.93,4.95-2.13,9.63-4.26,15.71-6.39.74-.26,1.5-.46,2.23-.73,1.43-.53,1.19.07,0-.1.67.09-2.54-.55-1.4-.2l-1.34-.57q-8-8,6-10.11c-3.18,1.89,2.55.72.77.51-.15,0-1.62-2.08.21.3-.35-.45-.68-.91-1-1.38-14.19-20.36-27.39-41.43-41.29-62-24.85-36.75-50.58-72.92-77.71-108q-22.55-29.18-46.56-57.19L769.56,618c37.71-17.55,72.25-42.07,96.71-76.13,24.67-34.34,36.38-75.78,40.17-117.49,6.56-72.08-7.19-146.89-52.88-204.61-44.9-56.72-113.52-88.67-182.2-106.24-44.05-11.27-89.42-17.21-134.75-20.1-24.77-1.58-49.85-2.8-74.67-2-19.21.63-38.33,3.66-57.2,7.14-44.93,8.28-89.22,19.88-134.46,26.5-38.55,5.65-82.8,9.65-119.37-6.91a94.57,94.57,0,0,1-21.68-13.42c-4.13-3.45-12.3-.33-10,5.84,22.46,61.13,35.08,125.52,41.09,190.26,6,65.17,5.71,130.84,1.53,196.12-3.89,60.68-11.17,121.1-20.38,181.19-7.49,48.9-16.4,97.55-24.93,146.28-3.12,17.85-6.22,35.72-8.7,53.67-1.76,12.72-3.53,25.6-3.52,38.47,0,2.16.07,4.31.23,6.46C105.12,930.73,117.13,930.79,116.53,923.08Z" transform="translate(-104.29 -91.21)"/>
        <path class="cls-2" d="M449.42,450.69c21.88,4.65,45.85,4.94,68,2.41,16.87-1.93,35-6,47.7-18.06a44.74,44.74,0,0,0,11.43-18.33,54.47,54.47,0,0,0,2.28-11,22.83,22.83,0,0,0,.39-5.23c-.45-3.44-1.34,3.48-.05-.86.12-.41.31-.81.42-1.23,2.47-9.07-2.07-19.88-6.71-27.46a65.53,65.53,0,0,0-32.08-26.4,80.28,80.28,0,0,0-26-5.24c-9.46-.41-18.68,1.31-28.08,1.79-4.33.22-8.62.94-12.95,1.3s-8.67.56-13,.71c-4.11.15-8.55-.22-12.51,1.12-11.56,3.91-13.91,18-14.41,28.52-.75,15.84,2,32,5.13,47.46,1.78,8.84,3.79,17.66,6.25,26.34,2.11,7.42,13.69,4.26,11.57-3.19-5.11-18-9.1-36.76-10.59-55.43-.77-9.62-1.76-22.7,3.26-30.26a5,5,0,0,1,2.45-2.06c-1.17.42,1.2-.28,1.6-.35-1.08.18-.1.08.12.06,2.35-.2,4.77-.13,7.13-.21,6.5-.24,13-.61,19.45-1.39,4.11-.49,8.25-.42,12.34-.84,9.63-1,18.86-2.31,28.57-1.07,13.51,1.73,26.34,7.54,35.66,17.6A49.49,49.49,0,0,1,565.27,382a35.83,35.83,0,0,1,1.9,5.15c.26.92.47,1.84.69,2.77.12.52.2,1,.28,1.57-.15-1,0-.16,0,.38,0,.75,0,1.49,0,2.24,0,1.85.06-1-.07.72s-.74,4-1,7.75a38.4,38.4,0,0,1-5.3,17.66c-8.38,13.62-25.85,18.19-40.65,20.38a203.51,203.51,0,0,1-33.43,1.75c-11.7-.22-23.67-.81-35.15-3.24C445.08,437.52,441.86,449.09,449.42,450.69Z" transform="translate(-104.29 -91.21)"/>
      </g>
    </g>
  </g>
</svg>
